<?xml version="1.0" encoding="UTF-8"?>
<!DOCTYPE svg PUBLIC "-//W3C//DTD SVG 1.1//EN" "http://www.w3.org/Graphics/SVG/1.1/DTD/svg11.dtd">
<!-- Creator: CorelDRAW 2020 (64 Bit) -->
<svg xmlns="http://www.w3.org/2000/svg" xml:space="preserve" width="63.2154mm" height="53.199mm" version="1.1" style="shape-rendering:geometricPrecision; text-rendering:geometricPrecision; image-rendering:optimizeQuality; fill-rule:evenodd; clip-rule:evenodd"
viewBox="0 0 647.62 545"
 xmlns:xlink="http://www.w3.org/1999/xlink"
 xmlns:xodm="http://www.corel.com/coreldraw/odm/2003">
 <defs>
  <style type="text/css">
   <![CDATA[
    .fil1 {fill:#999999}
    .fil0 {fill:#CCCCCC}
    .fil2 {fill:#4D4D4D;fill-rule:nonzero}
   ]]>
  </style>
 </defs>
 <g id="Camada_x0020_1">
  <metadata id="CorelCorpID_0Corel-Layer"/>
  <path class="fil0" d="M132.68 116.72c-26.67,21.23 -79.68,63.52 -106.18,84.66 -26.5,21.14 -26.5,21.14 -26.5,21.14 0,0 0,0 10.62,10.33 10.62,10.33 31.86,31 42.48,41.33 10.62,10.33 10.62,10.33 10.62,10.33 0,0 0,0 10.05,-6.79 10.05,-6.79 30.14,-20.38 40.18,-27.17 10.05,-6.79 10.05,-6.79 10.05,-6.79 0,0 0,0 0.1,34.06 0.1,34.06 0.29,102.18 0.67,136.82 0.38,34.64 0.96,35.78 2.01,37.51 1.05,1.72 2.58,4.02 4.5,5.93 1.91,1.91 4.21,3.45 33.1,4.59 28.89,1.15 84.39,1.91 112.61,1.82 28.22,-0.1 29.18,-1.05 31.19,-2.68 2.01,-1.63 5.07,-3.92 7.27,-5.84 2.2,-1.91 3.54,-3.44 4.11,-38.85 0.57,-35.4 0.38,-104.67 0.29,-139.3 -0.1,-34.63 -0.1,-34.63 -0.1,-34.63 0,0 0,0 10.62,7.46 10.62,7.46 31.86,22.39 42.48,29.85 10.62,7.46 10.62,7.46 10.62,7.46 0,0 0,0 10.33,-10.81 10.33,-10.81 31,-32.43 41.33,-43.25 10.33,-10.81 10.33,-10.81 10.33,-10.81 0,0 0,0 -26.12,-21.05 -26.12,-21.05 -78.36,-63.15 -104.48,-84.2 -26.12,-21.05 -26.12,-21.05 -26.12,-21.05 0,0 0,0 -0.67,4.88 -0.67,4.88 -2.01,14.64 -9.57,24.45 -7.56,9.81 -21.34,19.66 -34.54,24.3 -13.2,4.64 -25.83,4.07 -37.6,-0.05 -11.77,-4.11 -22.68,-11.77 -30.33,-20.38 -7.65,-8.61 -12.06,-18.18 -14.19,-24.15 -2.13,-5.97 -1.99,-8.34 -2.08,-9.44 -0.1,-1.1 -0.43,-0.93 -27.1,20.3z"/>
  <path class="fil0" d="M334.82 116.72c-26.67,21.23 -79.68,63.52 -106.18,84.66 -26.5,21.14 -26.5,21.14 -26.5,21.14 0,0 0,0 10.62,10.33 10.62,10.33 31.86,31 42.48,41.33 10.62,10.33 10.62,10.33 10.62,10.33 0,0 0,0 10.05,-6.79 10.05,-6.79 30.14,-20.38 40.18,-27.17 10.05,-6.79 10.05,-6.79 10.05,-6.79 0,0 0,0 0.1,34.06 0.1,34.06 0.29,102.18 0.67,136.82 0.38,34.64 0.96,35.78 2.01,37.51 1.05,1.72 2.58,4.02 4.5,5.93 1.91,1.91 4.21,3.45 33.1,4.59 28.89,1.15 84.39,1.91 112.61,1.82 28.22,-0.1 29.18,-1.05 31.19,-2.68 2.01,-1.63 5.07,-3.92 7.27,-5.84 2.2,-1.91 3.54,-3.44 4.11,-38.85 0.57,-35.4 0.38,-104.67 0.29,-139.3 -0.1,-34.63 -0.1,-34.63 -0.1,-34.63 0,0 0,0 10.62,7.46 10.62,7.46 31.86,22.39 42.48,29.85 10.62,7.46 10.62,7.46 10.62,7.46 0,0 0,0 10.33,-10.81 10.33,-10.81 31,-32.43 41.33,-43.25 10.33,-10.81 10.33,-10.81 10.33,-10.81 0,0 0,0 -26.12,-21.05 -26.12,-21.05 -78.36,-63.15 -104.48,-84.2 -26.12,-21.05 -26.12,-21.05 -26.12,-21.05 0,0 0,0 -0.67,4.88 -0.67,4.88 -2.01,14.64 -9.57,24.45 -7.56,9.81 -21.34,19.66 -34.54,24.3 -13.2,4.64 -25.83,4.07 -37.6,-0.05 -11.77,-4.11 -22.68,-11.77 -30.33,-20.38 -7.65,-8.61 -12.06,-18.18 -14.19,-24.15 -2.13,-5.97 -1.99,-8.34 -2.08,-9.44 -0.1,-1.1 -0.43,-0.93 -27.1,20.3z"/>
  <path class="fil1" d="M204.06 134.47c-31.48,25.06 -94.05,74.98 -125.33,99.94 -31.28,24.96 -31.28,24.96 -31.28,24.96 0,0 0,0 12.54,12.2 12.54,12.2 37.61,36.59 50.15,48.79 12.54,12.2 12.54,12.2 12.54,12.2 0,0 0,0 11.86,-8.02 11.86,-8.02 35.58,-24.06 47.43,-32.07 11.86,-8.02 11.86,-8.02 11.86,-8.02 0,0 0,0 0.11,40.21 0.11,40.21 0.34,120.62 0.79,161.5 0.45,40.88 1.13,42.24 2.37,44.27 1.24,2.03 3.05,4.74 5.31,7 2.26,2.26 4.97,4.07 39.08,5.42 34.11,1.36 99.61,2.26 132.93,2.15 33.32,-0.11 34.45,-1.24 36.82,-3.16 2.37,-1.92 5.99,-4.63 8.58,-6.89 2.6,-2.26 4.18,-4.07 4.86,-45.85 0.68,-41.79 0.45,-123.56 0.34,-164.44 -0.11,-40.88 -0.11,-40.88 -0.11,-40.88 0,0 0,0 12.54,8.81 12.54,8.81 37.61,26.43 50.15,35.24 12.54,8.81 12.54,8.81 12.54,8.81 0,0 0,0 12.2,-12.76 12.2,-12.76 36.59,-38.29 48.79,-51.05 12.2,-12.76 12.2,-12.76 12.2,-12.76 0,0 0,0 -30.83,-24.85 -30.83,-24.85 -92.5,-74.54 -123.33,-99.39 -30.83,-24.85 -30.83,-24.85 -30.83,-24.85 0,0 0,0 -0.79,5.76 -0.79,5.76 -2.37,17.28 -11.29,28.86 -8.92,11.58 -25.19,23.21 -40.77,28.69 -15.59,5.48 -30.5,4.8 -44.39,-0.06 -13.89,-4.86 -26.77,-13.89 -35.8,-24.06 -9.04,-10.16 -14.23,-21.46 -16.74,-28.5 -2.51,-7.04 -2.34,-9.84 -2.46,-11.14 -0.11,-1.3 -0.51,-1.1 -31.99,23.96z"/>
  <path class="fil2" d="M335.26 62.36l-7.63 0 0 -48.6c-1.84,1.76 -4.25,3.51 -7.23,5.26 -2.98,1.75 -5.67,3.06 -8.04,3.93l0 -7.37c4.26,-1.99 7.99,-4.42 11.19,-7.29 3.2,-2.85 5.46,-5.61 6.79,-8.3l4.92 0 0 62.36z"/>
 </g>
</svg>
