<?xml version="1.0" encoding="UTF-8"?>
<!DOCTYPE svg PUBLIC "-//W3C//DTD SVG 1.1//EN" "http://www.w3.org/Graphics/SVG/1.1/DTD/svg11.dtd">
<!-- Creator: CorelDRAW 2020 (64 Bit) -->
<svg xmlns="http://www.w3.org/2000/svg" xml:space="preserve" width="44.683mm" height="49.6053mm" version="1.1" style="shape-rendering:geometricPrecision; text-rendering:geometricPrecision; image-rendering:optimizeQuality; fill-rule:evenodd; clip-rule:evenodd"
viewBox="0 0 582.6 646.77"
 xmlns:xlink="http://www.w3.org/1999/xlink"
 xmlns:xodm="http://www.corel.com/coreldraw/odm/2003">
 <defs>
  <style type="text/css">
   <![CDATA[
    .fil0 {fill:#999999}
    .fil1 {fill:#4D4D4D;fill-rule:nonzero}
   ]]>
  </style>
 </defs>
 <g id="Camada_x0020_1">
  <metadata id="CorelCorpID_0Corel-Layer"/>
  <path class="fil0" d="M47.66 624.5c4.93,-21.84 14.71,-65.25 19.59,-86.95 4.89,-21.7 4.89,-21.7 4.89,-21.7 0,0 0,0 -10.78,-11.21 -10.78,-11.21 -32.34,-33.64 -45.39,-55.94 -13.05,-22.3 -17.6,-44.48 -15.47,-70.89 2.13,-26.42 10.93,-57.07 25.27,-83.64 14.35,-26.57 34.24,-49.06 66.89,-70.08 32.66,-21.02 78.08,-40.57 126.52,-50.49 48.44,-9.92 99.9,-10.21 155.96,4.17 56.06,14.37 116.72,43.41 153.51,76.61 36.8,33.2 49.73,70.58 53.06,106.67 3.33,36.1 -2.95,70.92 -18.83,101.1 -15.88,30.19 -41.37,55.73 -72.66,74.83 -31.29,19.1 -68.37,31.75 -109.05,39.51 -40.68,7.76 -84.95,10.64 -122.47,7.47 -37.52,-3.16 -68.28,-12.36 -83.66,-16.96 -15.38,-4.6 -15.38,-4.6 -15.38,-4.6 0,0 0,0 -19.52,14.08 -19.52,14.08 -58.57,42.23 -78.09,56.31 -19.52,14.08 -19.52,14.08 -19.48,13.94 0.04,-0.13 0.13,-0.4 5.07,-22.24z"/>
  <path class="fil1" d="M317.5 70.1l0 9.27 -52.33 0c-0.07,-2.34 0.31,-4.58 1.14,-6.75 1.34,-3.55 3.5,-7.06 6.46,-10.51 2.96,-3.44 7.19,-7.41 12.7,-11.92 8.56,-7.05 14.37,-12.62 17.4,-16.74 3.05,-4.12 4.58,-8.02 4.58,-11.7 0,-3.85 -1.38,-7.08 -4.14,-9.73 -2.76,-2.63 -6.37,-3.96 -10.8,-3.96 -4.69,0 -8.44,1.4 -11.26,4.19 -2.82,2.78 -4.23,6.64 -4.27,11.59l-9.94 -0.99c0.68,-7.43 3.26,-13.1 7.71,-17 4.47,-3.9 10.45,-5.85 17.98,-5.85 7.58,0 13.6,2.1 18.01,6.31 4.43,4.21 6.64,9.44 6.64,15.66 0,3.16 -0.64,6.27 -1.95,9.33 -1.29,3.07 -3.44,6.29 -6.44,9.68 -3.02,3.37 -8,8.02 -14.96,13.91 -5.83,4.89 -9.59,8.21 -11.24,9.95 -1.66,1.75 -3.02,3.5 -4.1,5.26l38.8 0z"/>
 </g>
</svg>
