<?xml version="1.0" encoding="UTF-8"?>
<!DOCTYPE svg PUBLIC "-//W3C//DTD SVG 1.1//EN" "http://www.w3.org/Graphics/SVG/1.1/DTD/svg11.dtd">
<!-- Creator: CorelDRAW 2020 (64 Bit) -->
<svg xmlns="http://www.w3.org/2000/svg" xml:space="preserve" width="38.5353mm" height="45.4481mm" version="1.1" style="shape-rendering:geometricPrecision; text-rendering:geometricPrecision; image-rendering:optimizeQuality; fill-rule:evenodd; clip-rule:evenodd"
viewBox="0 0 1698.54 2003.23"
 xmlns:xlink="http://www.w3.org/1999/xlink"
 xmlns:xodm="http://www.corel.com/coreldraw/odm/2003">
 <defs>
  <style type="text/css">
   <![CDATA[
    .fil0 {fill:#999999}
    .fil1 {fill:#4D4D4D;fill-rule:nonzero}
   ]]>
  </style>
 </defs>
 <g id="Camada_x0020_1">
  <metadata id="CorelCorpID_0Corel-Layer"/>
  <path class="fil0" d="M123.46 745.67l1451.63 0c67.9,0 123.46,55.56 123.46,123.46l0 137.86 -1698.55 0 0 -137.86c0,-67.9 55.56,-123.46 123.46,-123.46zm7.2 909.15l470.91 0 0 195.99 -470.91 0 0 -195.99zm1567.89 -413.74l0 638.71c0,67.9 -55.56,123.46 -123.46,123.46l-1451.63 0c-67.9,0 -123.46,-55.56 -123.46,-123.46l0 -638.71 1698.55 0z"/>
  <path class="fil1" d="M761.76 197.42l32.84 -4.48c3.79,18.66 10.14,32.1 19.16,40.3 9.02,8.21 20.09,12.32 33.21,12.32 15.55,0 28.68,-5.35 39.25,-16.04 10.57,-10.7 15.86,-23.95 15.86,-39.74 0,-15.05 -4.91,-27.5 -14.81,-37.32 -9.82,-9.77 -22.33,-14.68 -37.57,-14.68 -6.22,0 -13.93,1.24 -23.2,3.67l3.67 -28.73c2.18,0.25 3.98,0.37 5.29,0.37 14.06,0 26.62,-3.67 37.88,-10.95 11.2,-7.28 16.79,-18.47 16.79,-33.59 0,-12.01 -4.1,-21.95 -12.25,-29.85 -8.15,-7.9 -18.66,-11.82 -31.54,-11.82 -12.81,0 -23.45,4.05 -31.97,12.13 -8.52,8.09 -13.99,20.21 -16.42,36.39l-32.84 -5.97c4.04,-22.02 13.12,-39.12 27.37,-51.25 14.18,-12.13 31.91,-18.16 53.06,-18.16 14.55,0 27.99,3.11 40.24,9.39 12.32,6.22 21.7,14.74 28.17,25.5 6.53,10.82 9.76,22.27 9.76,34.39 0,11.51 -3.11,21.96 -9.27,31.41 -6.22,9.45 -15.43,16.98 -27.55,22.58 15.8,3.61 28.05,11.2 36.82,22.7 8.71,11.45 13.06,25.88 13.06,43.1 0,23.33 -8.52,43.17 -25.5,59.4 -17.04,16.23 -38.56,24.32 -64.56,24.32 -23.45,0 -42.92,-7.03 -58.41,-21.02 -15.55,-13.99 -24.38,-32.09 -26.56,-54.36z"/>
 </g>
</svg>
