<?xml version="1.0" encoding="UTF-8"?>
<!DOCTYPE svg PUBLIC "-//W3C//DTD SVG 1.1//EN" "http://www.w3.org/Graphics/SVG/1.1/DTD/svg11.dtd">
<!-- Creator: CorelDRAW 2020 (64 Bit) -->
<svg xmlns="http://www.w3.org/2000/svg" xml:space="preserve" width="61.5267mm" height="53.7501mm" version="1.1" style="shape-rendering:geometricPrecision; text-rendering:geometricPrecision; image-rendering:optimizeQuality; fill-rule:evenodd; clip-rule:evenodd"
viewBox="0 0 2675.07 2336.96"
 xmlns:xlink="http://www.w3.org/1999/xlink"
 xmlns:xodm="http://www.corel.com/coreldraw/odm/2003">
 <defs>
  <style type="text/css">
   <![CDATA[
    .str0 {stroke:#999999;stroke-width:32.61;stroke-linecap:round;stroke-linejoin:round;stroke-miterlimit:22.9256}
    .fil1 {fill:none}
    .fil0 {fill:#999999}
    .fil2 {fill:#4D4D4D;fill-rule:nonzero}
   ]]>
  </style>
 </defs>
 <g id="Camada_x0020_1">
  <metadata id="CorelCorpID_0Corel-Layer"/>
  <path class="fil0" d="M715.91 1695.61c-63.09,46.38 -183.64,124.27 -265.48,171.48 -81.84,47.21 -124.98,63.75 -164.05,92.87 -39.07,29.12 -74.06,70.82 -100.78,97.54 -26.72,26.72 -45.18,38.47 -65.14,43.46 -19.96,5 -41.43,3.24 -61.45,-5.39 -20.01,-8.63 -38.56,-24.13 -48.92,-47.7 -10.35,-23.57 -12.51,-55.2 -7.55,-80.41 4.97,-25.2 17.04,-43.97 33.03,-59.83 15.99,-15.86 35.88,-28.8 64.28,-36.59 28.4,-7.79 65.31,-10.43 88.99,0.52 23.68,10.94 34.12,35.47 39.7,47.73 5.58,12.26 6.3,12.26 7.62,12.02 1.32,-0.24 3.23,-0.72 39.3,-21.57 36.07,-20.85 106.29,-62.07 186.63,-107.9 80.35,-45.83 170.82,-96.29 227.2,-127.44 56.38,-31.16 78.67,-43.02 89.82,-48.95 11.14,-5.93 11.14,-5.93 8.33,1.5 -2.81,7.43 -8.45,22.29 -71.54,68.67zm-624.07 227.57c-17.01,8.87 -29.95,20.73 -38.57,33.38 -8.63,12.65 -12.94,26.07 -12.23,40.33 0.72,14.26 6.47,29.36 16.18,38.34 9.71,8.99 23.37,11.87 40.98,11.27 17.62,-0.6 39.18,-4.67 57.4,-14.38 18.22,-9.7 33.07,-25.04 41.1,-40.5 8.03,-15.46 9.23,-31.03 7.43,-43.5 -1.8,-12.46 -6.59,-21.81 -15.94,-28.88 -9.34,-7.07 -23.25,-11.87 -40.74,-11.33 -17.5,0.54 -38.59,6.41 -55.61,15.27z"/>
  <path class="fil0" d="M452.69 1533.87c-5.27,101.59 -14.13,301.22 -18.57,401.04 -4.43,99.82 -4.43,99.82 -4.43,99.82 0,0 0,0 14.9,5.53 14.91,5.53 44.73,16.6 63.94,34.12 19.22,17.52 27.85,41.49 30.08,66.99 2.23,25.5 -1.94,52.54 -9.73,78.9 -7.79,26.37 -19.19,52.06 -36.57,69.19 -17.37,17.13 -40.72,25.72 -69.72,22.37 -29,-3.36 -63.65,-18.65 -82.95,-41.66 -19.29,-23.01 -23.22,-53.73 -22.55,-83.95 0.67,-30.22 5.94,-59.93 16.49,-85.22 10.55,-25.28 26.37,-46.13 35.11,-58.23 8.75,-12.1 10.43,-15.46 12.82,-99.82 2.4,-84.36 5.5,-249.73 9.33,-340.98 3.83,-91.25 8.39,-108.39 19.95,-125.23 11.57,-16.83 30.14,-33.37 39.73,-41.91 9.59,-8.54 10.19,-9.08 9.65,-7.58 -0.53,1.5 -2.21,5.04 -7.48,106.63zm-59.37 580.68c-13.18,10.43 -20.6,25.06 -23.59,43.39 -2.99,18.34 -1.55,40.39 2.28,57.4 3.83,17.02 10.07,29 21.45,36.55 11.38,7.55 27.9,10.65 44.08,8.5 16.18,-2.16 32,-9.58 42.65,-24.03 10.65,-14.44 16.11,-35.92 16.59,-56.29 0.48,-20.37 -4.03,-39.64 -13.59,-54.19 -9.56,-14.55 -24.18,-24.37 -40.97,-26.18 -16.78,-1.8 -35.72,4.43 -48.9,14.85z"/>
  <path class="fil0" d="M949.99 500.58c-133.61,106.35 -399.15,318.21 -531.92,424.13 -132.77,105.93 -132.77,105.93 -132.77,105.93 0,0 0,0 53.2,51.77 53.2,51.77 159.61,155.3 212.82,207.07 53.2,51.77 53.2,51.77 53.2,51.77 0,0 0,0 50.33,-34.03 50.33,-34.03 150.98,-102.09 201.31,-136.13 50.33,-34.03 50.33,-34.03 50.33,-34.03 0,0 0,0 0.48,170.63 0.48,170.64 1.43,511.92 3.35,685.43 1.92,173.51 4.8,179.27 10.07,187.89 5.27,8.63 12.94,20.13 22.53,29.72 9.59,9.59 21.09,17.26 165.84,23.01 144.75,5.75 422.76,9.59 564.16,9.1 141.4,-0.48 146.19,-5.27 156.26,-13.42 10.07,-8.15 25.4,-19.65 36.43,-29.23 11.02,-9.59 17.73,-17.26 20.61,-194.6 2.87,-177.35 1.92,-524.37 1.44,-697.89 -0.48,-173.51 -0.48,-173.51 -0.48,-173.51 0,0 0,0 53.2,37.39 53.2,37.39 159.61,112.16 212.82,149.55 53.2,37.39 53.2,37.39 53.2,37.39 0,0 0,0 51.77,-54.17 51.77,-54.16 155.3,-162.49 207.07,-216.65 51.77,-54.16 51.77,-54.16 51.77,-54.16 0,0 0,0 -130.85,-105.45 -130.86,-105.45 -392.56,-316.35 -523.41,-421.8 -130.86,-105.45 -130.86,-105.45 -130.86,-105.45 0,0 0,0 -3.35,24.44 -3.36,24.45 -10.07,73.34 -47.93,122.47 -37.87,49.13 -106.89,98.5 -173.03,121.75 -66.15,23.25 -129.42,20.37 -188.38,-0.24 -58.96,-20.61 -113.6,-58.95 -151.94,-102.09 -38.35,-43.14 -60.4,-91.07 -71.07,-120.97 -10.67,-29.9 -9.95,-41.76 -10.43,-47.27 -0.48,-5.51 -2.16,-4.67 -135.77,101.67z"/>
  <path class="fil0" d="M2183.36 2190.87c-10.84,-143.08 -30.5,-426.35 -36.25,-576.62 -5.75,-150.27 2.4,-167.52 11.27,-178.78 8.87,-11.27 18.46,-16.53 27.32,-19.17 8.87,-2.63 17.02,-2.63 24.2,2.4 7.19,5.03 13.43,15.1 16.78,28.52 3.36,13.42 3.83,30.2 -1.38,178.19 -5.21,147.99 -16.11,427.2 -21.57,568.11 -5.45,140.92 -5.45,143.56 -6.47,143.44 -1.02,-0.12 -3.05,-3 -13.9,-146.07z"/>
  <g>
   <path class="fil1 str0" d="M2085.73 1477.28c42.42,14.14 84.84,28.28 119.71,50.57 34.87,22.29 62.2,52.73 88.56,105.69 26.37,52.97 51.77,128.46 78.13,173.63 26.37,45.18 53.69,60.03 79.57,69.74 25.89,9.71 50.33,14.27 84.6,9.71 34.27,-4.55 78.37,-18.21 122.47,-31.87"/>
  </g>
  <path class="fil2" d="M1352.57 263.58l0 -62.95 -114.48 0 0 -29.82 120.37 -170.81 26.5 0 0 170.81 35.71 0 0 29.82 -35.71 0 0 62.95 -32.4 0zm0 -92.77l0 -118.6 -82.64 118.6 82.64 0z"/>
 </g>
</svg>
