<?xml version="1.0" encoding="UTF-8"?>
<!DOCTYPE svg PUBLIC "-//W3C//DTD SVG 1.1//EN" "http://www.w3.org/Graphics/SVG/1.1/DTD/svg11.dtd">
<!-- Creator: CorelDRAW 2020 (64 Bit) -->
<svg xmlns="http://www.w3.org/2000/svg" xml:space="preserve" width="147.545mm" height="126.095mm" version="1.1" style="shape-rendering:geometricPrecision; text-rendering:geometricPrecision; image-rendering:optimizeQuality; fill-rule:evenodd; clip-rule:evenodd"
viewBox="0 0 6203.78 5301.87"
 xmlns:xlink="http://www.w3.org/1999/xlink"
 xmlns:xodm="http://www.corel.com/coreldraw/odm/2003">
 <defs>
  <style type="text/css">
   <![CDATA[
    .str0 {stroke:#999999;stroke-width:63.07;stroke-linecap:round;stroke-linejoin:round;stroke-miterlimit:22.9256}
    .fil4 {fill:none}
    .fil3 {fill:#999999}
    .fil1 {fill:#CCCCCC}
    .fil2 {fill:white}
    .fil0 {fill:#4D4D4D;fill-rule:nonzero}
   ]]>
  </style>
 </defs>
 <g id="Camada_x0020_1">
  <metadata id="CorelCorpID_0Corel-Layer"/>
  <path class="fil0" d="M1.85 2761.02l0 -221 159.58 0 0 25.93 -130.26 0 0 67.9 121.92 0 0 25.93 -121.92 0 0 75.31 135.5 0 0 25.93 -164.83 0zm204.95 0l0 -221 30.04 0 115.96 173.47 0 -173.47 28.09 0 0 221 -30.04 0 -115.96 -173.47 0 173.47 -28.09 0zm279.39 0l0 -195.07 -72.85 0 0 -25.93 175.01 0 0 25.93 -72.84 0 0 195.07 -29.32 0zm132.98 0l0 -221 97.95 0c19.7,0 34.68,2.01 44.91,5.97 10.24,3.96 18.42,10.96 24.54,20.99 6.12,10.03 9.16,21.15 9.16,33.28 0,15.69 -5.09,28.91 -15.23,39.66 -10.14,10.75 -25.77,17.54 -46.97,20.48 7.77,3.7 13.64,7.4 17.65,11.01 8.54,7.82 16.62,17.64 24.18,29.42l38.22 60.19 -36.53 0 -29.22 -45.99c-8.49,-13.32 -15.54,-23.46 -21.04,-30.5 -5.56,-7.05 -10.49,-11.94 -14.87,-14.77 -4.32,-2.78 -8.8,-4.73 -13.32,-5.86 -3.29,-0.67 -8.7,-1.03 -16.26,-1.03l-33.85 0 0 98.15 -29.32 0zm29.32 -123.47l62.76 0c13.38,0 23.76,-1.39 31.27,-4.17 7.51,-2.72 13.22,-7.15 17.08,-13.27 3.91,-6.07 5.87,-12.66 5.87,-19.81 0,-10.44 -3.75,-19.08 -11.31,-25.83 -7.56,-6.74 -19.5,-10.08 -35.81,-10.08l-69.86 0 0 73.15zm193.58 123.47l0 -221 159.58 0 0 25.93 -130.26 0 0 67.9 121.92 0 0 25.93 -121.92 0 0 75.31 135.5 0 0 25.93 -164.83 0zm308.66 -86.73l0 -25.93 93.52 0 0 81.9c-14.35,11.42 -29.17,20.06 -44.44,25.82 -15.28,5.76 -30.97,8.64 -47.02,8.64 -21.71,0 -41.41,-4.63 -59.16,-13.94 -17.7,-9.26 -31.12,-22.74 -40.13,-40.28 -9.06,-17.59 -13.58,-37.24 -13.58,-58.9 0,-21.51 4.47,-41.57 13.48,-60.24 9,-18.62 21.91,-32.46 38.79,-41.47 16.87,-9.05 36.32,-13.58 58.34,-13.58 15.94,0 30.4,2.57 43.31,7.77 12.91,5.19 23.05,12.4 30.35,21.6 7.35,9.26 12.91,21.35 16.72,36.22l-26.39 7.2c-3.35,-11.22 -7.46,-20.06 -12.35,-26.55 -4.94,-6.43 -11.93,-11.57 -21.09,-15.43 -9.11,-3.86 -19.24,-5.82 -30.4,-5.82 -13.32,0 -24.85,2.06 -34.62,6.12 -9.72,4.07 -17.54,9.41 -23.56,16.1 -5.97,6.63 -10.6,13.94 -13.89,21.86 -5.6,13.73 -8.43,28.55 -8.43,44.55 0,19.75 3.39,36.27 10.13,49.59 6.79,13.27 16.67,23.15 29.58,29.58 12.96,6.43 26.7,9.67 41.26,9.67 12.66,0 25.01,-2.47 37.04,-7.36 12.04,-4.94 21.15,-10.13 27.37,-15.74l0 -41.41 -64.81 0zm112.45 86.73l84.78 -221 32.15 0 89.97 221 -33.28 0 -25.56 -66.98 -93.06 0 -23.97 66.98 -31.02 0zm63.58 -90.75l75.31 0 -23.05 -61.27c-6.95,-18.62 -12.19,-34 -15.85,-46.15 -3.03,14.41 -7.1,28.55 -12.19,42.55l-24.23 64.87zm165.91 90.75l0 -221 43.83 0 52.26 156.44c4.84,14.56 8.33,25.47 10.55,32.72 2.52,-8.03 6.48,-19.86 11.83,-35.45l53.19 -153.71 39.15 0 0 221 -28.09 0 0 -184.89 -64.51 184.89 -26.34 0 -63.79 -188.28 0 188.28 -28.09 0zm248.78 -107.57c0,-36.63 9.88,-65.33 29.58,-86.07 19.7,-20.73 45.12,-31.07 76.29,-31.07 20.42,0 38.79,4.89 55.2,14.61 16.36,9.72 28.86,23.3 37.45,40.74 8.59,17.39 12.91,37.14 12.91,59.21 0,22.38 -4.53,42.44 -13.58,60.09 -9.06,17.69 -21.86,31.07 -38.43,40.13 -16.61,9.1 -34.52,13.63 -53.71,13.63 -20.83,0 -39.41,-5.04 -55.82,-15.07 -16.36,-10.03 -28.81,-23.71 -37.24,-41.1 -8.43,-17.34 -12.65,-35.7 -12.65,-55.09zm30.25 0.51c0,26.6 7.15,47.53 21.45,62.81 14.3,15.28 32.25,22.94 53.86,22.94 22.02,0 40.07,-7.72 54.32,-23.15 14.2,-15.43 21.3,-37.35 21.3,-65.74 0,-17.95 -3.04,-33.65 -9.11,-47.02 -6.07,-13.38 -14.97,-23.76 -26.64,-31.12 -11.73,-7.35 -24.85,-11.06 -39.41,-11.06 -20.68,0 -38.48,7.1 -53.4,21.3 -14.92,14.2 -22.38,37.86 -22.38,71.04zm209.22 36.06l27.47 -2.47c1.29,11.11 4.32,20.22 9.11,27.37 4.78,7.1 12.19,12.86 22.22,17.28 10.03,4.37 21.35,6.59 33.9,6.59 11.16,0 20.99,-1.65 29.53,-4.99 8.54,-3.34 14.87,-7.92 19.03,-13.74 4.17,-5.81 6.27,-12.14 6.27,-18.93 0,-6.9 -2.01,-12.91 -6.02,-18.11 -4.01,-5.14 -10.65,-9.46 -19.91,-13.01 -5.92,-2.27 -19.03,-5.87 -39.36,-10.76 -20.32,-4.89 -34.52,-9.46 -42.64,-13.78 -10.55,-5.56 -18.37,-12.45 -23.51,-20.63 -5.19,-8.18 -7.77,-17.39 -7.77,-27.52 0,-11.21 3.19,-21.66 9.52,-31.33 6.33,-9.73 15.54,-17.08 27.73,-22.12 12.14,-5.04 25.67,-7.56 40.54,-7.56 16.36,0 30.82,2.62 43.32,7.92 12.5,5.25 22.12,13.02 28.86,23.31 6.74,10.24 10.34,21.86 10.86,34.83l-28.09 2.16c-1.49,-13.94 -6.58,-24.49 -15.28,-31.59 -8.7,-7.15 -21.55,-10.7 -38.53,-10.7 -17.7,0 -30.61,3.24 -38.69,9.72 -8.07,6.48 -12.14,14.3 -12.14,23.46 0,7.92 2.88,14.46 8.59,19.6 5.66,5.09 20.32,10.39 44.09,15.74 23.76,5.4 40.07,10.08 48.92,14.1 12.81,5.92 22.33,13.38 28.45,22.48 6.12,9.06 9.16,19.5 9.16,31.33 0,11.78 -3.35,22.79 -10.08,33.18 -6.74,10.39 -16.36,18.47 -28.97,24.23 -12.6,5.76 -26.75,8.64 -42.54,8.64 -19.96,0 -36.68,-2.93 -50.16,-8.75 -13.53,-5.82 -24.08,-14.56 -31.74,-26.29 -7.72,-11.68 -11.73,-24.9 -12.14,-39.66z"/>
  <path class="fil0" d="M1.85 3172.67l0 -221 159.58 0 0 25.93 -130.26 0 0 67.9 121.92 0 0 25.93 -121.92 0 0 75.31 135.5 0 0 25.93 -164.83 0zm204.65 0l0 -221 43.83 0 52.26 156.44c4.84,14.56 8.33,25.47 10.55,32.72 2.52,-8.03 6.48,-19.86 11.83,-35.45l53.19 -153.71 39.15 0 0 221 -28.09 0 0 -184.89 -64.51 184.89 -26.34 0 -63.79 -188.28 0 188.28 -28.09 0zm394.11 0l0 -195.07 -72.85 0 0 -25.93 175.01 0 0 25.93 -72.84 0 0 195.07 -29.32 0zm117.86 -107.57c0,-36.63 9.88,-65.33 29.58,-86.07 19.7,-20.73 45.12,-31.07 76.29,-31.07 20.42,0 38.79,4.89 55.2,14.61 16.36,9.72 28.86,23.3 37.45,40.74 8.59,17.39 12.91,37.14 12.91,59.21 0,22.38 -4.53,42.44 -13.58,60.09 -9.06,17.69 -21.86,31.07 -38.43,40.13 -16.61,9.1 -34.52,13.63 -53.71,13.63 -20.83,0 -39.41,-5.04 -55.82,-15.07 -16.36,-10.03 -28.81,-23.71 -37.24,-41.1 -8.43,-17.34 -12.65,-35.7 -12.65,-55.09zm30.25 0.51c0,26.6 7.15,47.53 21.45,62.81 14.3,15.28 32.25,22.94 53.86,22.94 22.02,0 40.07,-7.72 54.32,-23.15 14.2,-15.43 21.3,-37.35 21.3,-65.74 0,-17.95 -3.04,-33.65 -9.11,-47.02 -6.07,-13.38 -14.97,-23.76 -26.64,-31.12 -11.73,-7.35 -24.85,-11.06 -39.41,-11.06 -20.68,0 -38.48,7.1 -53.4,21.3 -14.92,14.2 -22.38,37.86 -22.38,71.04zm218.79 107.05l0 -221 76.14 0c17.18,0 30.3,1.03 39.36,3.14 12.65,2.93 23.46,8.23 32.41,15.85 11.68,9.88 20.37,22.43 26.13,37.76 5.81,15.33 8.7,32.87 8.7,52.58 0,16.77 -1.96,31.64 -5.87,44.6 -3.91,12.96 -8.95,23.71 -15.07,32.2 -6.17,8.49 -12.86,15.17 -20.17,20.01 -7.25,4.89 -16.05,8.59 -26.34,11.11 -10.34,2.52 -22.17,3.75 -35.55,3.75l-79.74 0zm29.32 -25.93l47.12 0c14.56,0 25.98,-1.34 34.26,-4.07 8.28,-2.72 14.87,-6.53 19.8,-11.47 6.9,-6.95 12.29,-16.31 16.15,-28.04 3.86,-11.73 5.82,-25.93 5.82,-42.65 0,-23.15 -3.81,-40.95 -11.37,-53.4 -7.56,-12.45 -16.77,-20.78 -27.62,-25 -7.82,-3.04 -20.43,-4.52 -37.81,-4.52l-46.35 0 0 169.15zm184.64 -81.64c0,-36.63 9.88,-65.33 29.58,-86.07 19.7,-20.73 45.12,-31.07 76.29,-31.07 20.42,0 38.79,4.89 55.2,14.61 16.36,9.72 28.86,23.3 37.45,40.74 8.59,17.39 12.91,37.14 12.91,59.21 0,22.38 -4.53,42.44 -13.58,60.09 -9.06,17.69 -21.86,31.07 -38.43,40.13 -16.61,9.1 -34.52,13.63 -53.71,13.63 -20.83,0 -39.41,-5.04 -55.82,-15.07 -16.36,-10.03 -28.81,-23.71 -37.24,-41.1 -8.43,-17.34 -12.65,-35.7 -12.65,-55.09zm30.25 0.51c0,26.6 7.15,47.53 21.45,62.81 14.3,15.28 32.25,22.94 53.86,22.94 22.02,0 40.07,-7.72 54.32,-23.15 14.2,-15.43 21.3,-37.35 21.3,-65.74 0,-17.95 -3.04,-33.65 -9.11,-47.02 -6.07,-13.38 -14.97,-23.76 -26.64,-31.12 -11.73,-7.35 -24.85,-11.06 -39.41,-11.06 -20.68,0 -38.48,7.1 -53.4,21.3 -14.92,14.2 -22.38,37.86 -22.38,71.04zm295.59 -0.51c0,-36.63 9.88,-65.33 29.58,-86.07 19.7,-20.73 45.12,-31.07 76.29,-31.07 20.42,0 38.79,4.89 55.2,14.61 16.36,9.72 28.86,23.3 37.45,40.74 8.59,17.39 12.91,37.14 12.91,59.21 0,22.38 -4.53,42.44 -13.58,60.09 -9.06,17.69 -21.86,31.07 -38.43,40.13 -16.61,9.1 -34.52,13.63 -53.71,13.63 -20.83,0 -39.41,-5.04 -55.82,-15.07 -16.36,-10.03 -28.81,-23.71 -37.24,-41.1 -8.43,-17.34 -12.65,-35.7 -12.65,-55.09zm30.25 0.51c0,26.6 7.15,47.53 21.45,62.81 14.3,15.28 32.25,22.94 53.86,22.94 22.02,0 40.07,-7.72 54.32,-23.15 14.2,-15.43 21.3,-37.35 21.3,-65.74 0,-17.95 -3.04,-33.65 -9.11,-47.02 -6.07,-13.38 -14.97,-23.76 -26.64,-31.12 -11.73,-7.35 -24.85,-11.06 -39.41,-11.06 -20.68,0 -38.48,7.1 -53.4,21.3 -14.92,14.2 -22.38,37.86 -22.38,71.04z"/>
  <path class="fil0" d="M-0 3662.92l0 -334.2 125.4 0c25.51,0 45.97,3.35 61.46,10.11 15.4,6.77 27.46,17.19 36.17,31.27 8.79,14 13.15,28.71 13.15,44.11 0,14.24 -3.89,27.7 -11.59,40.3 -7.7,12.6 -19.37,22.79 -35.01,30.57 20.23,5.91 35.79,16.02 46.6,30.34 10.89,14.24 16.34,31.12 16.34,50.57 0,15.72 -3.35,30.26 -9.96,43.72 -6.61,13.46 -14.78,23.8 -24.5,31.12 -9.73,7.23 -21.94,12.76 -36.56,16.49 -14.7,3.73 -32.67,5.6 -53.99,5.6l-127.5 0zm44.34 -193.7l72.27 0c19.6,0 33.68,-1.32 42.16,-3.89 11.28,-3.35 19.76,-8.95 25.44,-16.73 5.68,-7.78 8.56,-17.5 8.56,-29.25 0,-11.12 -2.64,-20.93 -8.01,-29.33 -5.29,-8.48 -12.91,-14.31 -22.79,-17.42 -9.88,-3.11 -26.84,-4.67 -50.8,-4.67l-66.82 0 0 101.29zm0 154.49l83.24 0c14.31,0 24.35,-0.54 30.18,-1.63 10.11,-1.79 18.67,-4.82 25.52,-9.1 6.85,-4.28 12.45,-10.5 16.88,-18.67 4.43,-8.17 6.61,-17.58 6.61,-28.24 0,-12.53 -3.19,-23.34 -9.65,-32.59 -6.38,-9.26 -15.25,-15.71 -26.6,-19.45 -11.28,-3.73 -27.62,-5.6 -48.85,-5.6l-77.33 0 0 115.29zm269.78 39.21l0 -334.2 148.11 0c29.79,0 52.43,3.04 67.91,9.02 15.48,5.99 27.85,16.57 37.11,31.74 9.26,15.17 13.85,31.97 13.85,50.33 0,23.73 -7.7,43.72 -23.02,59.98 -15.33,16.26 -38.97,26.53 -71.03,30.96 11.75,5.6 20.62,11.21 26.68,16.65 12.91,11.82 25.13,26.68 36.56,44.49l57.8 91.02 -55.23 0 -44.19 -69.55c-12.83,-20.15 -23.49,-35.47 -31.82,-46.13 -8.4,-10.66 -15.87,-18.05 -22.48,-22.33 -6.54,-4.2 -13.3,-7.16 -20.15,-8.87 -4.98,-1.01 -13.15,-1.56 -24.58,-1.56l-51.19 0 0 148.43 -44.34 0zm44.34 -186.7l94.91 0c20.22,0 35.94,-2.1 47.3,-6.3 11.36,-4.12 19.99,-10.81 25.83,-20.07 5.91,-9.18 8.87,-19.14 8.87,-29.95 0,-15.79 -5.68,-28.86 -17.11,-39.05 -11.44,-10.19 -29.48,-15.25 -54.14,-15.25l-105.64 0 0 110.62zm255.16 186.7l128.2 -334.2 48.62 0 136.06 334.2 -50.33 0 -38.66 -101.29 -140.73 0 -36.25 101.29 -46.91 0zm96.15 -137.22l113.89 0 -34.85 -92.65c-10.5,-28.16 -18.43,-51.42 -23.96,-69.78 -4.59,21.78 -10.73,43.17 -18.44,64.33l-36.64 98.1zm237.34 29.87l41.54 -3.73c1.95,16.8 6.53,30.57 13.77,41.39 7.23,10.73 18.44,19.45 33.6,26.14 15.17,6.61 32.28,9.96 51.27,9.96 16.88,0 31.74,-2.49 44.65,-7.54 12.91,-5.06 22.48,-11.98 28.78,-20.77 6.3,-8.79 9.49,-18.36 9.49,-28.63 0,-10.42 -3.03,-19.52 -9.1,-27.38 -6.07,-7.78 -16.1,-14.31 -30.11,-19.68 -8.95,-3.42 -28.79,-8.87 -59.51,-16.26 -30.73,-7.39 -52.2,-14.31 -64.49,-20.85 -15.94,-8.4 -27.77,-18.82 -35.55,-31.19 -7.85,-12.37 -11.74,-26.29 -11.74,-41.62 0,-16.96 4.82,-32.75 14.39,-47.38 9.57,-14.7 23.5,-25.83 41.93,-33.45 18.36,-7.62 38.82,-11.44 61.3,-11.44 24.74,0 46.6,3.97 65.5,11.98 18.9,7.94 33.45,19.68 43.64,35.24 10.19,15.48 15.64,33.07 16.42,52.67l-42.48 3.27c-2.26,-21.08 -9.96,-37.03 -23.1,-47.76 -13.15,-10.81 -32.59,-16.18 -58.26,-16.18 -26.76,0 -46.29,4.9 -58.5,14.7 -12.21,9.8 -18.36,21.62 -18.36,35.47 0,11.98 4.36,21.86 12.99,29.64 8.56,7.7 30.73,15.71 66.67,23.81 35.94,8.17 60.6,15.25 73.98,21.31 19.37,8.95 33.76,20.22 43.02,33.99 9.25,13.69 13.85,29.48 13.85,47.37 0,17.82 -5.06,34.46 -15.25,50.18 -10.19,15.71 -24.74,27.93 -43.8,36.64 -19.06,8.71 -40.45,13.07 -64.33,13.07 -30.19,0 -55.47,-4.43 -75.85,-13.22 -20.46,-8.79 -36.41,-22.02 -48,-39.75 -11.67,-17.66 -17.74,-37.65 -18.36,-59.98zm333.26 107.35l0 -334.2 44.34 0 0 334.2 -44.34 0zm120.35 0l0 -334.2 44.34 0 0 294.99 164.3 0 0 39.21 -208.64 0z"/>
  <path class="fil1" d="M3631.43 5285.85c23.82,-11.53 69.7,-34.24 92.88,-62.52 23.18,-28.28 23.64,-62.11 31.52,-80.65 7.88,-18.54 23.18,-21.78 61.88,-54.24 38.71,-32.45 100.82,-94.1 148.1,-150.88 47.28,-56.78 79.73,-108.7 113.56,-151.35 33.84,-42.64 69.07,-76.02 89,-104.76 19.93,-28.74 24.57,-52.84 27.81,-111.25 3.25,-58.4 5.1,-151.11 24.11,-217.86 19.01,-66.75 55.16,-107.54 89.46,-144.16 34.3,-36.62 66.75,-69.07 91.32,-85.75 24.57,-16.68 41.26,-17.61 72.77,-24.1 31.52,-6.49 77.88,-18.54 112.64,-30.59 34.76,-12.05 57.94,-24.11 86.22,-33.38 28.28,-9.27 61.65,-15.76 108,-18.08 46.36,-2.32 105.69,-0.46 159.46,-14.83 53.77,-14.37 101.98,-44.96 143.7,-69.07 41.72,-24.1 76.95,-41.71 126.54,-131.18 49.6,-89.46 113.56,-250.77 153.89,-366.66 40.33,-115.88 57.01,-186.34 69.53,-268.85 12.52,-82.51 20.86,-177.07 27.35,-244.28 6.49,-67.21 11.13,-107.08 15.76,-131.64 4.63,-24.57 9.27,-33.83 22.25,-42.18 12.98,-8.34 34.31,-15.76 76.02,-56.55 41.72,-40.79 103.83,-114.96 160.38,-174.75 56.55,-59.79 107.54,-105.22 140.45,-149.25 32.91,-44.04 47.74,-86.68 65.36,-120.99 17.62,-34.3 38.01,-60.26 51.91,-86.22 13.91,-25.96 21.33,-51.91 19.47,-118.66 -1.85,-66.75 -12.98,-174.29 -19.93,-235.02 -6.95,-60.72 -9.73,-74.63 -19.01,-80.65 -9.27,-6.03 -25.03,-4.17 -63.04,-2.32 -38.01,1.85 -98.27,3.71 -134.42,0.46 -36.16,-3.24 -48.21,-11.59 -86.68,-47.74 -38.47,-36.16 -103.37,-100.12 -176.61,-143.69 -73.24,-43.57 -154.82,-66.75 -229.91,-85.76 -75.09,-19.01 -143.69,-33.83 -178,-41.25 -34.3,-7.42 -34.3,-7.42 -45.43,-9.27 -11.13,-1.85 -33.37,-5.56 -51.91,-11.13 -18.54,-5.56 -33.38,-12.98 -47.75,-12.52 -14.37,0.47 -28.28,8.81 -40.33,22.25 -12.05,13.45 -22.25,31.98 -42.18,17.15 -19.93,-14.83 -49.6,-63.04 -111.25,-112.64 -61.65,-49.6 -155.29,-100.58 -222.96,-127.01 -67.67,-26.42 -109.39,-28.28 -136.74,-15.76 -27.35,12.52 -40.32,39.4 -45.89,61.65 -5.56,22.25 -3.71,39.87 -23.64,51.92 -19.93,12.05 -61.65,18.54 -82.97,3.25 -21.32,-15.3 -22.25,-52.38 -12.52,-82.05 9.74,-29.66 30.13,-51.91 11.59,-73.7 -18.54,-21.78 -76.02,-43.11 -114.49,-61.65 -38.47,-18.54 -57.94,-34.3 -65.82,-58.87 -7.88,-24.56 -4.17,-57.94 -2.32,-77.41 1.85,-19.47 1.85,-25.03 5.56,-40.79 3.71,-15.76 11.12,-41.71 -6.49,-59.33 -17.61,-17.61 -60.26,-26.88 -81.58,-38.01 -21.32,-11.13 -21.32,-24.1 -31.98,-66.75 -10.66,-42.64 -31.98,-114.96 -44.04,-153.89 -12.05,-38.94 -14.83,-44.5 -28.28,-17.61 -13.44,26.88 -37.54,86.22 -49.83,126.09 -12.28,39.86 -12.74,60.26 -27.58,77.18 -14.83,16.92 -44.04,30.36 -88.07,27.12 -44.04,-3.24 -102.9,-23.18 -154.13,-33.14 -51.22,-9.97 -94.79,-9.97 -125.62,-4.87 -30.82,5.1 -48.9,15.3 -61.65,29.67 -12.74,14.37 -20.16,32.91 -25.49,44.73 -5.33,11.82 -8.57,16.92 -35.23,19.01 -26.65,2.09 -76.72,1.16 -114.96,8.35 -38.24,7.19 -64.66,22.48 -114.26,32.91 -49.6,10.43 -122.38,15.99 -165.02,8.35 -42.64,-7.65 -55.16,-28.51 -60.26,-74.4 -5.1,-45.89 -2.78,-116.81 -5.1,-187.73 -2.32,-70.92 -9.27,-141.84 -18.08,-181.48 -8.81,-39.63 -19.47,-47.98 -34.53,-49.6 -15.07,-1.62 -34.54,3.48 -52.62,25.03 -18.08,21.56 -34.76,59.57 -70.92,86.45 -36.16,26.88 -91.78,42.65 -152.73,51.45 -60.96,8.81 -127.24,10.66 -173.83,-2.32 -46.58,-12.98 -73.47,-40.79 -82.74,-45.2 -9.27,-4.4 -0.93,14.6 10.66,28.05 11.59,13.44 26.42,21.32 32.91,38.01 6.49,16.69 4.64,42.18 3.48,68.14 -1.16,25.96 -1.62,52.38 6.26,67.21 7.88,14.83 24.11,18.08 43.11,18.08 19.01,0 40.79,-3.24 52.15,5.33 11.36,8.58 12.29,28.97 0,48.67 -12.28,19.7 -37.78,38.71 -56.78,48.21 -19.01,9.5 -31.52,9.5 -72.31,25.26 -40.79,15.76 -109.86,47.28 -174.06,60.26 -64.2,12.98 -123.53,7.42 -159.92,-12.52 -36.39,-19.93 -49.83,-54.23 -72.77,-71.38 -22.94,-17.15 -55.39,-17.15 -107.54,-17.15 -52.15,0 -124,0 -155.98,9.04 -31.98,9.04 -24.1,27.12 -11.82,45.66 12.29,18.54 28.97,37.55 38.7,53.08 9.74,15.53 12.52,27.58 -8.8,36.15 -21.32,8.58 -66.75,13.68 -86.91,22.95 -20.16,9.27 -15.07,22.71 -4.17,58.64 10.89,35.92 27.58,94.33 40.33,143 12.75,48.67 21.55,87.61 19.47,129.1 -2.09,41.49 -15.06,85.52 -23.41,136.98 -8.34,51.45 -12.05,110.32 -63.97,138.83 -51.91,28.51 -152.04,26.65 -227.13,68.37 -75.09,41.72 -125.16,127.01 -152.04,192.36 -26.88,65.36 -30.59,110.79 -28.74,157.14 1.85,46.36 9.27,93.63 47.05,146.94 37.78,53.31 105.92,112.64 143.46,145.09 37.55,32.45 44.5,38.01 61.19,35 16.69,-3.01 43.11,-14.6 65.59,-23.41 22.48,-8.8 41.02,-14.83 54.69,-14.14 13.68,0.7 22.48,8.12 36.85,37.55 14.37,29.44 34.3,80.89 70.23,107.54 35.92,26.65 87.84,28.51 146.48,14.83 58.64,-13.67 124,-42.88 175.68,-82.51 51.68,-39.63 89.69,-89.69 124,-114.72 34.3,-25.03 64.89,-25.03 92.7,-12.52 27.81,12.52 52.85,37.55 56.79,64.44 3.94,26.88 -13.21,55.62 -8.12,93.63 5.1,38.01 32.45,85.29 71.16,129.09 38.7,43.8 88.77,84.14 160.38,116.81 71.62,32.68 164.79,57.71 237.1,83.2 72.31,25.5 123.76,51.45 152.5,79.96 28.74,28.51 34.77,59.57 37.09,103.14 2.32,43.57 0.93,99.66 28.5,128.63 27.58,28.97 84.14,30.82 117.74,36.16 33.61,5.33 44.27,14.14 71.15,58.17 26.88,44.04 69.99,123.29 82.74,239.41 12.75,116.12 -4.86,269.09 -11.36,352.99 -6.49,83.9 -1.85,98.73 3.71,113.1 5.56,14.37 12.05,28.28 42.18,25.96 30.13,-2.32 83.9,-20.86 124.69,-18.08 40.79,2.78 68.6,26.88 89.93,44.5 21.33,17.62 36.16,28.74 48.21,49.14 12.05,20.4 21.33,50.06 26.42,77.41 5.1,27.35 6.03,52.38 18.54,55.62 12.52,3.25 36.62,-15.29 51.91,-4.17 15.3,11.13 21.79,51.92 23.18,93.64 1.39,41.72 -2.32,84.36 5.1,107.54 7.42,23.18 25.96,26.88 39.86,52.38 13.91,25.5 23.18,72.78 18.54,102.44 -4.63,29.67 -23.17,41.72 -66.28,71.39 -43.11,29.67 -110.78,76.95 -161.31,127.94 -50.52,50.99 -83.9,105.68 -111.71,146.47 -27.81,40.79 -50.06,67.68 -69.99,82.98 -19.93,15.3 -37.55,19.01 -35.23,23.18 2.32,4.17 24.57,8.81 46.82,9.27 22.25,0.46 44.5,-3.25 72.31,6.95 27.81,10.2 61.19,34.3 91.78,52.38 30.6,18.08 58.41,30.13 79.27,36.16 20.86,6.03 34.76,6.03 54.69,13.9 19.93,7.88 45.89,23.64 58.87,44.5 12.98,20.86 12.98,46.81 22.02,65.82 9.04,19.01 27.12,31.06 40.56,44.27 13.44,13.21 22.25,27.58 15.18,50.7 -7.07,23.12 -30.01,54.99 -42.47,74.28 -12.46,19.3 -14.43,26.01 -14.02,28.1 0.41,2.09 3.19,-0.46 5.45,-1.91 2.26,-1.45 4,-1.79 27.81,-13.32z"/>
  <g id="_3062707349040">
   <path class="fil2" d="M4895.93 3680.14c-109.55,20.8 -255.56,67.15 -358.24,109.57 -102.67,42.41 -162.01,80.89 -191.68,100.12 -29.66,19.24 -29.66,19.24 -29.66,19.24 0,0 0,0 16.45,26.88 16.46,26.88 49.37,80.66 65.82,107.77 16.46,27.12 16.46,27.58 16.46,27.81 0,0.23 0,0.23 -102.44,0.93 -102.44,0.7 -307.32,2.09 -409.77,2.78 -102.44,0.7 -102.44,0.7 -102.44,0.7 0,0 0,0 49.83,-85.06 49.83,-85.06 149.49,-255.18 199.32,-340.24 49.83,-85.06 49.83,-85.06 49.83,-85.06 0,0 0,0 15.76,28.97 15.76,28.97 47.28,86.91 63.04,115.88 15.76,28.97 15.76,28.97 15.76,28.97 0,0 0,0 29.2,-16.69 29.21,-16.68 87.61,-50.06 152.04,-73.7 64.43,-23.64 134.89,-37.55 229.22,-45.2 94.33,-7.65 212.54,-9.04 307.71,-3.72 95.18,5.32 167.34,17.35 203.47,23.38 36.13,6.03 36.24,6.05 36.29,6.05 0.05,0.01 0.05,0.01 0.17,6.16 0.11,6.15 0.34,18.44 0.48,25 0.14,6.57 0.19,7.41 0.02,7.82 -0.16,0.41 -0.54,0.38 -37.28,-2.01 -36.73,-2.39 -109.82,-7.15 -219.37,13.64z"/>
   <path class="fil2" d="M5117.88 3574.62c-34.25,-20.8 -102.76,-62.86 -172.35,-97.11 -69.6,-34.24 -140.28,-60.66 -208.66,-74.46 -68.37,-13.79 -134.42,-14.96 -167.45,-15.54 -33.03,-0.58 -33.03,-0.58 -33.03,-0.58 0,0 0,0 -16.81,27.35 -16.8,27.35 -50.41,82.05 -67.22,109.39 -16.8,27.35 -16.8,27.35 -16.34,27.12 0.47,-0.23 1.39,-0.69 -45.31,-45.31 -46.7,-44.62 -141.03,-133.38 -187.04,-177.54 -46.01,-44.15 -43.69,-43.69 -44.15,-43.46 -0.46,0.23 -3.7,0.23 56.67,-27.46 60.37,-27.7 184.37,-83.09 272.55,-118.21 88.19,-35.11 140.57,-49.94 166.76,-57.36 26.19,-7.42 26.19,-7.42 26.19,-7.42 0,0 0,0 -0.7,-0.23 -0.69,-0.23 -2.09,-0.7 -13.44,22.71 -11.36,23.41 -32.68,70.69 -43.34,94.33 -10.66,23.64 -10.66,23.64 -10.66,23.64 0,0 0,0 23.41,5.1 23.41,5.1 70.23,15.3 130.02,36.62 59.8,21.32 132.57,53.77 190.05,90.16 57.48,36.39 99.66,76.71 129.68,107.19 30.02,30.48 47.88,51.11 56.81,61.42 8.93,10.31 8.93,10.31 8.93,10.31 0,0 0,0 -0.05,11.42 -0.05,11.42 -0.16,34.26 -0.21,45.79 -0.05,11.53 -0.05,11.75 -0.06,12.09 0,0.34 0,0.81 -34.26,-19.98z"/>
   <path class="fil2" d="M5136.06 3441.74c-16.66,-28.87 -49.97,-87.27 -95.14,-166.08 -45.16,-78.8 -102.17,-178 -174.25,-282.99 -72.08,-104.99 -159.23,-215.77 -251.24,-310.34 -92.01,-94.56 -188.89,-172.9 -307.79,-250.31 -118.9,-77.41 -259.81,-153.89 -425.29,-218.09 -165.48,-64.2 -355.53,-116.12 -450.56,-142.08 -95.03,-25.96 -95.03,-25.96 -95.03,-25.96 0,0 0,0 -26.19,29.66 -26.19,29.67 -78.57,89 -104.76,118.67 -26.19,29.67 -26.19,29.67 -26.19,29.67 0,0 0,0 -26.19,-40.1 -26.19,-40.1 -78.57,-120.29 -130.26,-182.87 -51.68,-62.57 -102.67,-107.54 -128.17,-130.02 -25.49,-22.48 -25.49,-22.48 -25.49,-22.48 0,0 0,0 39.4,-11.82 39.4,-11.82 118.21,-35.46 227.83,-58.41 109.63,-22.94 250.08,-45.19 343.25,-57.02 93.17,-11.82 139.07,-13.21 162.01,-13.9 22.94,-0.69 22.94,-0.69 22.94,-0.69 0,0 0,0 -30.82,27.81 -30.82,27.81 -92.48,83.44 -123.3,111.25 -30.82,27.81 -30.82,27.81 -30.82,27.81 0,0 0,0 73.24,21.78 73.24,21.79 219.71,65.36 344.17,108 124.46,42.65 226.9,84.37 327.26,134.89 100.36,50.53 198.63,109.86 285.54,178.69 86.91,68.83 162.47,147.18 225.74,222.96 63.28,75.79 114.27,149.03 166.41,248.23 52.15,99.2 105.46,224.35 147.41,322.83 41.95,98.48 72.55,170.29 87.84,206.2 15.3,35.9 15.3,35.9 15.3,35.9 0,0 0,0 -0.03,19.34 -0.03,19.34 -0.09,58.01 -0.12,77.4 -0.03,19.39 -0.03,19.49 -0.03,19.87 0,0.38 0,1.05 -16.66,-27.82z"/>
   <path class="fil2" d="M5201.13 3249.49c3.2,-55.37 9.44,-165.95 45,-285.9 35.57,-119.95 100.46,-249.28 132.91,-313.94 32.45,-64.66 32.45,-64.66 32.45,-64.66 0,0 0,0 26.19,14.14 26.19,14.14 78.57,42.42 104.76,56.55 26.19,14.14 26.19,14.14 26.19,14.14 0,0 0,0 -8.58,-101.75 -8.57,-101.74 -25.72,-305.24 -34.3,-406.99 -8.57,-101.74 -8.57,-101.74 -8.57,-101.74 0,0 0,0 -80.42,53.77 -80.42,53.77 -241.27,161.31 -321.69,215.08 -80.42,53.77 -80.42,53.77 -80.42,53.77 0,0 0,0 28.97,15.53 28.97,15.53 86.91,46.59 115.88,62.12 28.97,15.53 28.97,15.53 28.97,15.53 0,0 0,0 -13.91,39.17 -13.9,39.17 -41.71,117.51 -59.33,201.87 -17.61,84.36 -25.03,174.75 -25.38,261.2 -0.35,86.45 6.37,168.96 16.32,228.96 9.95,60.01 23.14,97.51 29.73,116.27 6.59,18.75 6.59,18.75 6.59,18.75 0,0 0,0 5.77,-6.04 5.77,-6.03 17.32,-18.1 23.18,-24.13 5.86,-6.03 6.03,-6.02 6.19,-6.09 0.16,-0.07 0.32,-0.23 3.52,-55.6z"/>
  </g>
  <path class="fil3" d="M5286.81 4095.84c138.56,0.05 414.82,0.05 552.96,-1.35 138.14,-1.39 138.14,-4.17 139.99,-4.17 1.85,0 5.56,2.78 43.11,-25.49 37.55,-28.28 108.93,-87.61 144.62,-117.28 35.69,-29.66 35.69,-29.66 35.69,-29.66 0,0 0,0 0,0 0,0 0,0 0,-124.23 0,-124.23 0,-372.68 0.12,-496.91 0.12,-124.23 0.35,-124.23 0.47,-124.23 0.12,0 0.12,0 -146.02,0 -146.13,0 -438.4,0 -583.96,-0.16 -145.56,-0.15 -144.42,-0.45 -143.84,-0.57 0.58,-0.12 0.6,-0.04 -29.29,29.89 -29.89,29.94 -89.68,89.73 -119.24,119.98 -29.55,30.25 -28.85,30.95 -28.51,31.29 0.35,0.35 0.35,0.35 -0.22,123.76 -0.56,123.42 -1.69,370.25 -2.81,493.96 -1.11,123.72 -2.22,124.33 -2.35,124.68 -0.13,0.35 0.72,0.44 139.28,0.48zm1.93 -743.35l717.57 0 53.43 -102.9 -717.57 0 -53.43 102.9z"/>
  <g>
   <path class="fil4 str0" d="M5425.72 3352.49c-0.46,-68.14 -0.93,-136.29 2.11,-180.01 3.04,-43.72 9.57,-63.03 23.76,-80.82 14.19,-17.79 36.05,-34.06 57.64,-45.68 21.59,-11.61 42.92,-18.56 69.45,-22.27 26.54,-3.71 58.29,-4.18 88.07,-1.05 29.79,3.13 57.6,9.85 79.04,18.19 21.44,8.35 36.5,18.32 49.02,31.29 12.52,12.98 22.49,28.97 28.28,44.38 5.79,15.41 7.42,30.25 8,69.48 0.58,39.23 0.11,102.86 -0.35,166.48"/>
  </g>
  <g>
   <path class="fil4 str0" d="M5607.21 3172.52c-0.46,-26.89 -0.93,-53.77 2.11,-76.87 3.04,-23.1 9.57,-42.4 23.76,-60.19 14.19,-17.79 36.05,-34.06 57.64,-45.68 21.59,-11.61 42.92,-18.56 69.45,-22.27 26.54,-3.71 58.29,-4.18 88.07,-1.05 29.79,3.13 57.6,9.85 79.04,18.19 21.44,8.35 36.5,18.32 49.02,31.29 12.52,12.98 22.49,28.97 28.28,44.38 5.79,15.41 7.42,30.25 8,48.85 0.58,18.61 0.11,40.97 -0.35,63.35"/>
  </g>
  <path class="fil0" d="M3453.49 184.77l32.75 -2.49c2.43,15.96 8.07,27.94 16.85,36.01 8.78,8.01 19.52,12.05 32.16,12.05 15.25,0 28.01,-5.7 38.39,-17.03 10.32,-11.39 15.49,-26.46 15.49,-45.21 0,-17.86 -4.92,-31.92 -14.83,-42.24 -9.91,-10.32 -23.02,-15.49 -39.33,-15.49 -10.15,0 -19.22,2.32 -27.29,6.94 -8.01,4.63 -14.3,10.62 -18.93,17.98l-29.55 -4.27 24.56 -131.01 126.38 0 0 29.9 -101.4 0 -13.59 68.77c15.25,-10.74 31.27,-16.08 48,-16.08 22.19,0 40.94,7.72 56.19,23.14 15.25,15.42 22.9,35.24 22.9,59.45 0,23.08 -6.7,43.02 -20.12,59.81 -16.31,20.65 -38.62,30.97 -66.87,30.97 -23.14,0 -42.01,-6.53 -56.66,-19.52 -14.65,-12.99 -23.02,-30.2 -25.1,-51.68z"/>
 </g>
</svg>
